<svg version="1.0" xmlns="http://www.w3.org/2000/svg" viewBox="0 0 891 828" fill="#ffffff">
  <g transform="translate(0,828) scale(0.1,-0.1)">
    <path d="M4216 7064 c-2 -6 -105 -87 -228 -179 -224 -170 -318 -240 -918 -694 -304 -230 -602 -455 -1207 -911 -139 -104 -255 -190 -258 -190 -3 0 -5 92 -5 205 l0 204 238 178 c219 165 409 308 1351 1018 190 143 498 375 685 516 l341 256 3 -196 c1 -107 0 -201 -2 -207z m361 268 c232 -176 1034 -782 1763 -1331 503 -378 479 -359 459 -374 -8 -7 -65 -51 -126 -99 -61 -49 -116 -88 -122 -88 -6 0 -255 183 -552 408 -298 224 -563 423 -589 442 -27 19 -144 108 -262 197 -117 89 -334 253 -483 366 l-270 204 -3 201 c-1 127 1 202 7 202 6 0 86 -58 178 -128z m-357 -805 l0 -202 -227 -171 c-126 -94 -293 -221 -373 -281 -80 -60 -413 -312 -740 -558 -327 -247 -643 -486 -703 -532 l-107 -83 -135 101 c-74 56 -135 104 -135 108 1 3 74 61 163 127 156 117 462 348 937 707 231 175 710 537 1090 824 118 89 218 163 223 163 4 0 7 -91 7 -203z m498 -35 c174 -131 432 -325 572 -432 140 -106 432 -325 648 -487 215 -162 392 -299 392 -303 0 -9 -230 -187 -253 -196 -9 -3 -77 42 -170 113 -85 65 -174 132 -198 150 -149 108 -1184 887 -1271 955 l-48 38 0 200 c0 110 3 200 6 200 3 0 148 -107 322 -238z m-498 -727 l0 -204 -242 -184 c-134 -101 -363 -274 -510 -385 -609 -459 -805 -608 -851 -644 l-48 -38 -57 42 c-108 79 -212 161 -212 167 0 3 35 31 78 62 42 31 181 135 307 231 127 95 379 286 560 423 182 137 412 311 512 387 101 76 229 173 285 214 57 42 119 89 138 105 19 15 36 28 38 28 1 1 2 -91 2 -204z m340 78 c80 -60 398 -299 708 -531 309 -232 562 -426 562 -430 -1 -6 -194 -162 -244 -196 -14 -10 -4 -17 -763 552 l-433 324 0 200 c0 156 3 199 13 195 6 -2 77 -54 157 -114z m2460 -576 l0 -203 -107 -82 c-60 -45 -210 -160 -334 -254 -125 -95 -273 -209 -330 -252 -57 -44 -149 -114 -204 -156 -55 -42 -215 -164 -355 -271 -140 -108 -327 -251 -415 -318 -88 -67 -241 -183 -340 -259 -98 -75 -260 -199 -360 -274 l-180 -137 -3 197 c-1 108 -1 201 2 208 2 6 91 77 198 157 176 134 632 481 803 613 39 29 163 125 276 211 114 87 312 239 440 338 129 98 297 227 374 286 77 58 226 172 330 252 105 80 193 146 198 147 4 0 7 -91 7 -203z m-2800 -254 l-1 -208 -67 -50 c-36 -27 -188 -141 -336 -252 -148 -112 -274 -203 -279 -203 -15 0 -268 192 -265 201 2 4 32 30 68 56 76 57 436 330 695 526 99 75 181 137 183 137 1 0 2 -93 2 -207z m258 144 c37 -29 231 -176 432 -327 406 -304 430 -323 430 -330 0 -6 -206 -166 -243 -189 -22 -13 -40 -1 -362 240 l-340 254 -3 203 c-2 139 1 202 8 202 6 0 41 -24 78 -53z m-2636 -599 c84 -64 212 -162 283 -217 72 -56 234 -179 360 -275 214 -162 650 -495 791 -604 64 -49 361 -276 708 -541 110 -84 209 -161 219 -170 16 -15 17 -36 15 -215 l-3 -198 -205 156 c-113 85 -259 197 -325 247 -171 131 -486 372 -650 496 -306 233 -383 292 -463 354 -46 35 -195 148 -330 251 -136 103 -336 256 -444 340 l-198 153 0 202 0 203 44 -32 c25 -18 113 -86 198 -150z m5178 -20 l-1 -203 -42 -31 c-51 -38 -216 -165 -392 -300 -71 -55 -213 -163 -315 -240 -102 -77 -284 -216 -405 -309 -121 -93 -285 -218 -365 -279 -80 -60 -220 -167 -311 -237 -92 -70 -246 -188 -342 -261 -96 -73 -238 -182 -316 -241 l-141 -108 0 205 0 205 81 63 c45 35 170 131 279 213 108 83 297 227 421 322 213 164 387 297 1134 868 600 458 700 534 708 534 4 1 7 -90 7 -201z m-3803 -306 c379 -288 663 -503 825 -625 l177 -132 0 -202 c1 -112 -1 -203 -4 -203 -5 0 -132 95 -599 450 -76 58 -274 208 -440 334 -165 125 -321 242 -345 260 l-43 31 33 28 c109 90 226 175 236 174 7 -1 79 -53 160 -115z m-1392 -382 c83 -64 242 -186 353 -271 112 -85 279 -212 370 -282 92 -70 196 -150 232 -177 36 -27 175 -134 310 -237 135 -103 310 -237 390 -298 80 -60 231 -175 335 -256 105 -80 237 -181 293 -223 57 -43 105 -83 108 -89 2 -7 3 -100 2 -206 l-3 -193 -245 186 c-135 102 -317 241 -405 309 -88 67 -281 214 -430 327 -389 296 -880 671 -1025 783 -69 53 -212 162 -317 243 l-193 145 0 206 0 205 38 -28 c20 -15 105 -80 187 -144z m5194 -37 l2 -198 -33 -26 c-18 -14 -134 -102 -258 -196 -124 -93 -394 -299 -600 -457 -206 -157 -521 -397 -699 -534 -179 -136 -395 -301 -480 -367 -371 -285 -544 -415 -552 -415 -5 0 -9 89 -9 199 l0 198 143 110 c195 150 588 451 723 553 62 47 201 154 310 237 291 223 588 450 849 647 127 96 309 236 405 310 96 74 180 135 186 136 7 0 11 -62 13 -197z m-5065 -781 c149 -114 385 -295 527 -402 342 -260 697 -530 789 -602 167 -129 446 -342 625 -478 105 -79 220 -168 258 -197 l67 -54 0 -201 c0 -159 -3 -198 -12 -191 -7 5 -92 69 -188 141 -96 72 -229 173 -295 223 -66 51 -192 147 -280 214 -88 67 -183 139 -211 161 -185 143 -472 361 -490 374 -12 8 -51 37 -86 65 -34 27 -207 159 -383 293 -176 133 -330 251 -342 260 -12 9 -91 71 -177 137 l-156 120 0 203 0 204 43 -31 c23 -17 163 -125 311 -239z m5066 66 l-1 -203 -167 -127 c-316 -240 -608 -463 -1017 -775 -783 -599 -881 -674 -1125 -859 -135 -103 -258 -197 -273 -210 -16 -13 -33 -24 -38 -24 -5 0 -9 84 -9 199 l0 199 128 99 c70 55 195 151 277 213 83 63 215 164 294 224 147 114 199 153 502 383 96 73 258 197 360 275 189 145 381 291 738 563 108 83 224 171 257 197 32 25 62 47 67 47 4 1 7 -90 7 -201z"/>
  </g>
</svg>
